<svg xmlns="http://www.w3.org/2000/svg" xmlns:xlink="http://www.w3.org/1999/xlink" version="1.1" data-diagram-type="DESCRIPTION" style="width:1594px;height:525px;background:#FFFFFF;" width="1594px" height="525px" viewBox="0 0 1594 525" zoomAndPan="magnify" preserveAspectRatio="none" contentStyleType="text/css"><?plantuml 1.2026.8?><defs/><g font-family="sans-serif" lengthAdjust="spacing"><g class="title" data-source-line="2"><text x="709.5" y="26.24" fill="#000" font-size="14" textLength="167.999" font-weight="700" font-family="Noto Sans CJK SC">远端模式部署（目标设计）</text></g><!--cluster Agent 主机（Linux / WSL）--><g class="cluster" data-qualified-name="Agent ...Linux . WSL." id="ent0001" data-source-line="8"><polygon points="14,126.772,24,116.772,868,116.772,868,308.772,858,318.772,14,318.772,14,126.772" fill="none" style="stroke:#181818;stroke-width:1;stroke-linejoin:miter;stroke-miterlimit:10;"/><line x1="858" y1="126.772" x2="868" y2="116.772" style="stroke:#181818;stroke-width:1;"/><line x1="14" y1="126.772" x2="858" y2="126.772" style="stroke:#181818;stroke-width:1;"/><line x1="858" y1="126.772" x2="858" y2="318.772" style="stroke:#181818;stroke-width:1;"/><text x="347.484" y="146.012" fill="#000" font-size="14" textLength="179.031" font-weight="700" font-family="Noto Sans CJK SC">Agent 主机（Linux / WSL）</text></g><!--cluster 备份主机（Linux）--><g class="cluster" data-qualified-name=".....Linux." id="ent0007" data-source-line="15"><polygon points="1027.5,227.772,1037.5,217.772,1578,217.772,1578,491.772,1568,501.772,1027.5,501.772,1027.5,227.772" fill="none" style="stroke:#181818;stroke-width:1;stroke-linejoin:miter;stroke-miterlimit:10;"/><line x1="1568" y1="227.772" x2="1578" y2="217.772" style="stroke:#181818;stroke-width:1;"/><line x1="1027.5" y1="227.772" x2="1568" y2="227.772" style="stroke:#181818;stroke-width:1;"/><line x1="1568" y1="227.772" x2="1568" y2="501.772" style="stroke:#181818;stroke-width:1;"/><text x="1237.696" y="247.012" fill="#000" font-size="14" textLength="122.107" font-weight="700" font-family="Noto Sans CJK SC">备份主机（Linux）</text></g><!--entity Network--><g class="entity" data-qualified-name="Network" id="ent0006" data-source-line="14"><path d="M709.393,348.852 C712.129,342.098 718.261,342.761 721.972,347.813 C725.548,342.14 730.175,340.157 734.876,346.618 C737.543,340.325 743.485,340.221 746.886,345.881 C751.323,340.14 755.526,341.095 758.773,347.086 C762.252,340.137 768.73,340.293 772.867,346.375 C775.962,341.51 779.979,340.591 783.436,346.004 C786.683,339.677 792.873,339.567 795.927,346.191 C800.621,341.582 805.027,341.925 808.513,347.661 C812.234,341.641 818.707,341.778 821.989,348.139 C825.188,342.367 831.012,341.171 834.481,347.868 C845.705,349.902 847.639,355.586 841.284,364.718 C847.406,373.136 844.621,382.947 832.861,383.226 C828.93,389.587 824.439,389.109 820.486,383.248 C817.072,388.093 813.78,387.915 809.959,383.722 C806.523,389.532 801.488,389.679 797.254,384.658 C794.262,391.042 788.375,393.138 783.338,386.915 C780.664,391.739 775.551,391.554 772.536,387.322 C768.655,392.391 764.086,392.238 760.271,387.24 C756.276,392.893 750.285,391.239 747.897,385.495 C744.478,390.882 739.138,391.009 735.942,385.256 C731.085,391.012 726.75,390.258 722.729,384.312 C718.538,389.433 712.086,388.989 709.018,382.933 C699.177,377.977 698.523,372.015 706.885,364.904 C700.835,359.008 701.431,352.559 709.393,348.852" style="stroke:#181818;stroke-width:0.5;" fill="#F1F1F1"/><text x="716" y="370.012" fill="#000" font-size="14" textLength="109.76" font-family="Noto Sans CJK SC">局域网 / 远端网络</text></g><g class="entity" data-qualified-name="GMN20" id="ent0021" data-source-line="30"><path d="M305,45.272 L305,95.816 A0,0 0 0 0 305,95.816 L428,95.816 L432,219.623 L436,95.816 L558.637,95.816 A0,0 0 0 0 558.637,95.816 L558.637,55.272 L548.637,45.272 L305,45.272 A0,0 0 0 0 305,45.272" style="stroke:#181818;stroke-width:0.5;" fill="#FEFFDD"/><path d="M548.637,45.272 L548.637,55.272 L558.637,55.272 L548.637,45.272" style="stroke:#181818;stroke-width:0.5;" fill="#FEFFDD"/><text x="311" y="66.512" fill="#000" font-size="14" textLength="232.637" font-family="Noto Sans CJK SC">原文校验 / 压缩 / 仓库加密在 Agent。</text><text x="311" y="86.784" fill="#000" font-size="14" textLength="153.999" font-family="Noto Sans CJK SC">仓库密码只在本机解锁。</text></g><g class="entity" data-qualified-name="GMN23" id="ent0024" data-source-line="34"><path d="M1035,146.272 L1035,196.816 A0,0 0 0 0 1035,196.816 L1127,196.816 L1131,328.147 L1135,196.816 L1227.149,196.816 A0,0 0 0 0 1227.149,196.816 L1227.149,156.272 L1217.149,146.272 L1035,146.272 A0,0 0 0 0 1035,146.272" style="stroke:#181818;stroke-width:0.5;" fill="#FEFFDD"/><path d="M1217.149,146.272 L1217.149,156.272 L1227.149,156.272 L1217.149,146.272" style="stroke:#181818;stroke-width:0.5;" fill="#FEFFDD"/><text x="1041" y="167.512" fill="#000" font-size="14" textLength="171.149" font-family="Noto Sans CJK SC">Server 不访问远端源目录，</text><text x="1041" y="187.784" fill="#000" font-size="14" textLength="153.999" font-family="Noto Sans CJK SC">也不持有仓库解密密钥。</text></g><!--entity GUI--><g class="entity" data-qualified-name="Agent ...Linux . WSL..GUI" id="ent0002" data-source-line="9"><rect x="34" y="223.272" width="111.83" height="43.272" fill="#F1F1F1" style="stroke:#181818;stroke-width:0.5;" rx="2.5" ry="2.5"/><polygon points="128.83,228.272,128.83,242.272,140.83,242.272,140.83,234.272,134.83,228.272,128.83,228.272" fill="#F1F1F1" style="stroke:#181818;stroke-width:0.5;stroke-linejoin:miter;stroke-miterlimit:10;"/><line x1="134.83" y1="228.272" x2="134.83" y2="234.272" style="stroke:#181818;stroke-width:0.5;"/><line x1="140.83" y1="234.272" x2="134.83" y2="234.272" style="stroke:#181818;stroke-width:0.5;"/><text x="44" y="252.512" fill="#000" font-size="14" textLength="81.83" font-family="Noto Sans CJK SC">Electron GUI</text></g><!--entity Agent--><g class="entity" data-qualified-name="Agent ...Linux . WSL..Agent" id="ent0003" data-source-line="10"><polygon points="363.5,229.772,373.5,219.772,500.226,219.772,500.226,260.044,490.226,270.044,363.5,270.044,363.5,229.772" fill="#F1F1F1" style="stroke:#181818;stroke-width:0.5;stroke-linejoin:miter;stroke-miterlimit:10;"/><line x1="490.226" y1="229.772" x2="500.226" y2="219.772" style="stroke:#181818;stroke-width:0.5;"/><line x1="363.5" y1="229.772" x2="490.226" y2="229.772" style="stroke:#181818;stroke-width:0.5;"/><line x1="490.226" y1="229.772" x2="490.226" y2="270.044" style="stroke:#181818;stroke-width:0.5;"/><text x="378.5" y="256.012" fill="#000" font-size="14" textLength="96.726" font-family="Noto Sans CJK SC">常驻 C++ Agent</text></g><!--entity Source--><g class="entity" data-qualified-name="Agent ...Linux . WSL..Source" id="ent0004" data-source-line="11"><path d="M696.5,240.772 L737.5,240.772 A3.75,3.75 0 0 1 740,243.272 L747,261.772 L845.259,261.772 A2.5,2.5 0 0 1 847.759,264.272 L847.759,296.544 A2.5,2.5 0 0 1 845.259,299.044 L696.5,299.044 A2.5,2.5 0 0 1 694,296.544 L694,243.272 A2.5,2.5 0 0 1 696.5,240.772" style="stroke:#181818;stroke-width:0.5;" fill="#F1F1F1"/><line x1="694" y1="261.772" x2="747" y2="261.772" style="stroke:#181818;stroke-width:0.5;"/><text x="704" y="285.012" fill="#000" font-size="14" textLength="123.759" font-family="Noto Sans CJK SC">源目录 / 恢复空目录</text></g><!--entity AgentDB--><g class="entity" data-qualified-name="Agent ...Linux . WSL..AgentDB" id="ent0005" data-source-line="12"><path d="M731.5,183.272 C731.5,173.272 770.788,173.272 770.788,173.272 C770.788,173.272 810.076,173.272 810.076,183.272 L810.076,212.544 C810.076,222.544 770.788,222.544 770.788,222.544 C770.788,222.544 731.5,222.544 731.5,212.544 L731.5,183.272" style="stroke:#181818;stroke-width:0.5;" fill="#F1F1F1"/><path d="M731.5,183.272 C731.5,193.272 770.788,193.272 770.788,193.272 C770.788,193.272 810.076,193.272 810.076,183.272" style="stroke:#181818;stroke-width:0.5;" fill="none"/><text x="741.5" y="213.512" fill="#000" font-size="14" textLength="58.576" font-family="Noto Sans CJK SC">agent.db</text></g><!--entity Server--><g class="entity" data-qualified-name=".....Linux..Server" id="ent0008" data-source-line="16"><polygon points="1047.5,338.272,1057.5,328.272,1214.563,328.272,1214.563,388.816,1204.563,398.816,1047.5,398.816,1047.5,338.272" fill="#F1F1F1" style="stroke:#181818;stroke-width:0.5;stroke-linejoin:miter;stroke-miterlimit:10;"/><line x1="1204.563" y1="338.272" x2="1214.563" y2="328.272" style="stroke:#181818;stroke-width:0.5;"/><line x1="1047.5" y1="338.272" x2="1204.563" y2="338.272" style="stroke:#181818;stroke-width:0.5;"/><line x1="1204.563" y1="338.272" x2="1204.563" y2="398.816" style="stroke:#181818;stroke-width:0.5;"/><text x="1062.5" y="364.512" fill="#000" font-size="14" textLength="94.276" font-family="Noto Sans CJK SC">Backup Server</text><text x="1062.5" y="384.784" fill="#000" font-size="14" textLength="127.063" font-family="Noto Sans CJK SC">配置地址:9443 / TLS</text></g><!--entity Credentials--><g class="entity" data-qualified-name=".....Linux..Credentials" id="ent0009" data-source-line="17"><rect x="1390" y="438.272" width="167.759" height="43.272" fill="#F1F1F1" style="stroke:#181818;stroke-width:0.5;" rx="2.5" ry="2.5"/><polygon points="1540.759,443.272,1540.759,457.272,1552.759,457.272,1552.759,449.272,1546.759,443.272,1540.759,443.272" fill="#F1F1F1" style="stroke:#181818;stroke-width:0.5;stroke-linejoin:miter;stroke-miterlimit:10;"/><line x1="1546.759" y1="443.272" x2="1546.759" y2="449.272" style="stroke:#181818;stroke-width:0.5;"/><line x1="1552.759" y1="449.272" x2="1546.759" y2="449.272" style="stroke:#181818;stroke-width:0.5;"/><text x="1400" y="467.512" fill="#000" font-size="14" textLength="137.759" font-family="Noto Sans CJK SC">证书 / 单用户验证材料</text></g><!--entity DB--><g class="entity" data-qualified-name=".....Linux..DB" id="ent0010" data-source-line="18"><path d="M1421.5,381.272 C1421.5,371.272 1473.913,371.272 1473.913,371.272 C1473.913,371.272 1526.326,371.272 1526.326,381.272 L1526.326,410.544 C1526.326,420.544 1473.913,420.544 1473.913,420.544 C1473.913,420.544 1421.5,420.544 1421.5,410.544 L1421.5,381.272" style="stroke:#181818;stroke-width:0.5;" fill="#F1F1F1"/><path d="M1421.5,381.272 C1421.5,391.272 1473.913,391.272 1473.913,391.272 C1473.913,391.272 1526.326,391.272 1526.326,381.272" style="stroke:#181818;stroke-width:0.5;" fill="none"/><text x="1431.5" y="411.512" fill="#000" font-size="14" textLength="84.826" font-family="Noto Sans CJK SC">metadata.db</text></g><!--entity Storage--><g class="entity" data-qualified-name=".....Linux..Storage" id="ent0011" data-source-line="19"><path d="M1413.5,274.272 L1454.5,274.272 A3.75,3.75 0 0 1 1457,276.772 L1464,295.272 L1534.26,295.272 A2.5,2.5 0 0 1 1536.76,297.772 L1536.76,350.316 A2.5,2.5 0 0 1 1534.26,352.816 L1413.5,352.816 A2.5,2.5 0 0 1 1411,350.316 L1411,276.772 A2.5,2.5 0 0 1 1413.5,274.272" style="stroke:#181818;stroke-width:0.5;" fill="#F1F1F1"/><line x1="1411" y1="295.272" x2="1464" y2="295.272" style="stroke:#181818;stroke-width:0.5;"/><text x="1421" y="318.512" fill="#000" font-size="14" textLength="51.072" font-family="Noto Sans CJK SC">Storage</text><text x="1421" y="338.784" fill="#000" font-size="14" textLength="95.76" font-family="Noto Sans CJK SC">对象 / 密文清单</text></g><g class="link" data-entity-1="ent0002" data-entity-2="ent0003" id="lnk12" data-link-type="dependency"><polygon points="363.489,244.772,354.489,240.772,358.489,244.772,354.489,248.772,363.489,244.772" fill="#181818" style="stroke:#181818;stroke-width:1;stroke-linejoin:miter;stroke-miterlimit:10;"/><path d="M146.005,244.772 C205.301,244.772 294.737,244.772 358.489,244.772" style="stroke:#181818;stroke-width:1;" fill="none"/><text x="166" y="239.012" fill="#000" font-size="14" textLength="119.63" font-family="Noto Sans CJK SC">同 UID Unix socket</text></g><g class="link" data-entity-1="ent0003" data-entity-2="ent0004" id="lnk13" data-link-type="dependency"><polygon points="693.791,264.118,685.112,259.464,688.805,263.749,684.52,267.442,693.791,264.118" fill="#181818" style="stroke:#181818;stroke-width:1;stroke-linejoin:miter;stroke-miterlimit:10;"/><path d="M500.792,249.801 C556.627,253.943 630.781,259.444 688.805,263.749" style="stroke:#181818;stroke-width:1;" fill="none"/><text x="579" y="251.012" fill="#000" font-size="14" textLength="95.76" font-family="Noto Sans CJK SC">本机读取 / 恢复</text></g><g class="link" data-entity-1="ent0003" data-entity-2="ent0005" id="lnk14" data-link-type="dependency"><polygon points="731.203,203.183,721.737,200.464,726.251,203.873,722.842,208.388,731.203,203.183" fill="#181818" style="stroke:#181818;stroke-width:1;stroke-linejoin:miter;stroke-miterlimit:10;"/><path d="M500.792,235.317 C569.986,225.667 670.016,211.716 726.251,203.873" style="stroke:#181818;stroke-width:1;" fill="none"/></g><g class="link" data-entity-1="ent0003" data-entity-2="ent0006" id="lnk15" data-link-type="dependency"><polygon points="700.871,339.361,693.716,332.593,696.156,337.696,691.053,340.136,700.871,339.361" fill="#181818" style="stroke:#181818;stroke-width:1;stroke-linejoin:miter;stroke-miterlimit:10;"/><path d="M500.792,268.71 C558.934,289.241 637.63,317.03 696.156,337.696" style="stroke:#181818;stroke-width:1;" fill="none"/><text x="593" y="292.012" fill="#000" font-size="14" textLength="67.76" font-family="Noto Sans CJK SC">上传 / 下载</text></g><g class="link" data-entity-1="ent0006" data-entity-2="ent0008" id="lnk16" data-link-type="dependency"><polygon points="1047.362,363.772,1038.362,359.772,1042.362,363.772,1038.362,367.772,1047.362,363.772" fill="#181818" style="stroke:#181818;stroke-width:1;stroke-linejoin:miter;stroke-miterlimit:10;"/><path d="M841.026,363.772 C899.95,363.772 979.831,363.772 1042.362,363.772" style="stroke:#181818;stroke-width:1;" fill="none"/><text x="892.693" y="338.012" fill="#000" font-size="14" textLength="108.374" font-family="Noto Sans CJK SC">TLS + 单用户认证</text><text x="878" y="358.284" fill="#000" font-size="14" textLength="137.759" font-family="Noto Sans CJK SC">版本化控制 / 二进制流</text></g><g class="link" data-entity-1="ent0008" data-entity-2="ent0009" id="lnk17" data-link-type="dependency"><polygon points="1396.466,438.226,1388.887,431.937,1391.653,436.871,1386.719,439.637,1396.466,438.226" fill="#181818" style="stroke:#181818;stroke-width:1;stroke-linejoin:miter;stroke-miterlimit:10;"/><path d="M1214.547,387.011 C1269.934,402.604 1337.562,421.643 1391.653,436.871" style="stroke:#181818;stroke-width:1;" fill="none"/></g><g class="link" data-entity-1="ent0008" data-entity-2="ent0010" id="lnk18" data-link-type="dependency"><polygon points="1421.4,390.93,1412.814,386.106,1416.422,390.463,1412.066,394.071,1421.4,390.93" fill="#181818" style="stroke:#181818;stroke-width:1;stroke-linejoin:miter;stroke-miterlimit:10;"/><path d="M1214.547,371.518 C1279.001,377.567 1361.571,385.315 1416.422,390.463" style="stroke:#181818;stroke-width:1;" fill="none"/><text x="1281" y="369.012" fill="#000" font-size="14" textLength="56" font-family="Noto Sans CJK SC">版本事务</text></g><g class="link" data-entity-1="ent0008" data-entity-2="ent0011" id="lnk19" data-link-type="dependency"><polygon points="1410.569,322.712,1401.091,320.033,1405.619,323.423,1402.229,327.952,1410.569,322.712" fill="#181818" style="stroke:#181818;stroke-width:1;stroke-linejoin:miter;stroke-miterlimit:10;"/><path d="M1214.689,351.278 C1224.896,349.751 1235.187,348.22 1245,346.772 C1300.988,338.509 1359.791,330.01 1405.619,323.423" style="stroke:#181818;stroke-width:1;" fill="none"/><text x="1247" y="322.012" fill="#000" font-size="14" textLength="123.759" font-family="Noto Sans CJK SC">保存 / 校验存储字节</text></g><?plantuml-src RLHDJnDH5DtFhxXsIz0OsSZ2H8eQbB2fn0sRryvhcNGwZqnV1JKc52EKqW8A50qbRHMbeBHYefP-o8zntinqnL_mpaTfCQxcpRldddFlkNVcsfnEOWa2Add6KXoI2Sg9HYIkS9M2VLwqljJDQaMqDxglgbRd-qKxO-tLpFAANVjjroeNxLL9fL4Ed86kn6Ovo8fE8rnXcfICAzeSqKa2ahD4PlEA5eCeKPDq82BJA4cf_3xJ-1H9K9XYI1GYMXA23nz1AFX_Q4XvJk7co40mJ2BncCvIcXnaAjDXVbRXLDAOJ25mDqOr3aQZPHQRMFwaegKMu0Oy2KrYzG5u8G4GdIjH4k4GkATYzJhJuC7qH018qdaYm6CIZKRtg0N1eI5mILs0Uq98bAaorI5WDZVH8T7PGGqp_K4SvAsZfdVZuaCifKSe9iY4ap198YznAAxBuJxV-9ZqKegeB2MZwkcYA9MipXiaz0Q2PwjLTD5JbCypFUwtAWvMZ5RdQgkNJNgGCNGgDGSXgZ-b-epMVPstEZLH_2Rs5qTlZupSGf77ao6lKXTpnHwxdZREFYD6v7UixQgP-TKzpk6bkRzf5jwxMK6TojY1WfE-qgIpMCvRhqziiMzQY3DSGpgZYVgPVLfn1EhBPc75RBn69QyQ3uA-u4XWUFYEvnICWjZCmVJ4E4nhoW8aMIHEkUJ579JdDyBCubUqnQwtn4RXSZO3m9xn_HlVNCmr6bcZNSOiex5cTpfIB-8Ak3OX27s3eRupTkq0dPdHhDKCIejSmLm_59cV3aapPv_luTdyaPRyT8TfqBg1w_4n9FTOZEQQo5O6WxujJetd--BadTDPkO9JmRDOgegJNJkxXEl1AOGPvom1BEhlh5WlEHQxQCVnzJMhVUIKrzeIpIsHBUCCHB7geVyiBab-eBvibTDYunXZlgU77xlRQGT1DHaShNy5_LNowpOQURjstjsj-V-NtXTpqSv9nba9msOkRHPNFJraTmgfBtVVVXhK-0i0?></g></svg>