<svg xmlns="http://www.w3.org/2000/svg" xmlns:xlink="http://www.w3.org/1999/xlink" version="1.1" data-diagram-type="CLASS" style="width:1401px;height:1161px;background:#FFFFFF;" width="1401px" height="1161px" viewBox="0 0 1401 1161" zoomAndPan="magnify" preserveAspectRatio="none" contentStyleType="text/css"><?plantuml 1.2026.8?><defs/><g font-family="sans-serif" lengthAdjust="spacing"><g class="title" data-source-line="2"><text x="620.293" y="26.24" fill="#000" font-size="14" textLength="153.999" font-weight="700" font-family="Noto Sans CJK SC">核心类模型（目标设计）</text></g><!--cluster 领域模型--><g class="cluster" data-qualified-name="...." id="ent0001" data-source-line="9"><rect x="260" y="201.272" width="584" height="936" fill="none" style="stroke:#000;stroke-width:1.5;" rx="2.5" ry="2.5"/><text x="526" y="218.352" fill="#000" font-size="13" textLength="52" font-weight="700" font-family="Noto Sans CJK SC">领域模型</text></g><!--cluster Agent 行为--><g class="cluster" data-qualified-name="Agent .." id="ent0011" data-source-line="68"><rect x="860" y="45.272" width="491" height="498.5" fill="none" style="stroke:#000;stroke-width:1.5;" rx="2.5" ry="2.5"/><text x="1072.298" y="62.352" fill="#000" font-size="13" textLength="66.404" font-weight="700" font-family="Noto Sans CJK SC">Agent 行为</text></g><!--cluster Server 行为--><g class="cluster" data-qualified-name="Server .." id="ent0017" data-source-line="88"><rect x="14" y="210.772" width="230" height="342" fill="none" style="stroke:#000;stroke-width:1.5;" rx="2.5" ry="2.5"/><text x="93.503" y="227.852" fill="#000" font-size="13" textLength="70.993" font-weight="700" font-family="Noto Sans CJK SC">Server 行为</text></g><g class="entity" data-qualified-name="GMN38" id="ent0039" data-source-line="119"><path d="M860,1036.772 L860,1084.42 A0,0 0 0 0 860,1084.42 L1102,1084.42 A0,0 0 0 0 1102,1084.42 L1102,1046.772 L1092,1036.772 L937.988,1036.772 L483.849,893.888 L929.988,1036.772 L860,1036.772 A0,0 0 0 0 860,1036.772" style="stroke:#181818;stroke-width:0.5;" fill="#FEFFDD"/><path d="M1092,1036.772 L1092,1046.772 L1102,1046.772 L1092,1036.772" style="stroke:#181818;stroke-width:0.5;" fill="#FEFFDD"/><text x="866" y="1056.852" fill="#000" font-size="13" textLength="221" font-family="Noto Sans CJK SC">清单条目存为流；加密仓库中是密文。</text><text x="866" y="1075.676" fill="#000" font-size="13" textLength="184.925" font-family="Noto Sans CJK SC">Server 不持有原文或仓库密钥。</text></g><!--class BackupTarget--><g class="entity" data-qualified-name=".....BackupTarget" id="ent0002" data-source-line="10"><rect x="575" y="246.272" width="150.307" height="121.296" fill="#F1F1F1" style="stroke:#181818;stroke-width:0.5;" rx="2.5" ry="2.5"/><ellipse cx="604.797" cy="261.272" rx="10" ry="10" fill="#ADD1B2" style="stroke:#181818;stroke-width:1;"/><path d="M606.657,265.506 Q606.219,265.725 605.719,265.834 Q605.235,265.959 604.704,265.959 Q602.782,265.959 601.766,264.694 Q600.766,263.428 600.766,261.038 Q600.766,258.647 601.766,257.381 Q602.782,256.116 604.704,256.116 Q605.235,256.116 605.735,256.241 Q606.235,256.35 606.657,256.584 L606.657,258.663 Q606.172,258.225 605.719,258.022 Q605.266,257.803 604.782,257.803 Q603.766,257.803 603.235,258.631 Q602.704,259.444 602.704,261.038 Q602.704,262.647 603.235,263.459 Q603.766,264.272 604.782,264.272 Q605.266,264.272 605.719,264.069 Q606.172,263.866 606.657,263.413 L606.657,265.506 Z " fill="#000"/><text x="621.308" y="266.94" fill="#000" font-size="13" textLength="85.202" font-family="Noto Sans CJK SC">BackupTarget</text><line x1="576" y1="276.272" x2="724.307" y2="276.272" style="stroke:#181818;stroke-width:0.5;"/><text x="581" y="295.352" fill="#000" font-size="13" textLength="93.808" font-family="Noto Sans CJK SC">+targetId: UUID</text><text x="581" y="314.176" fill="#000" font-size="13" textLength="138.307" font-family="Noto Sans CJK SC">+mode: Local | Remote</text><text x="581" y="333" fill="#000" font-size="13" textLength="105.807" font-family="Noto Sans CJK SC">+endpoint: String</text><text x="581" y="351.824" fill="#000" font-size="13" textLength="85.293" font-family="Noto Sans CJK SC">+repoId: UUID</text><line x1="576" y1="359.568" x2="724.307" y2="359.568" style="stroke:#181818;stroke-width:0.5;"/></g><!--class BackupTask--><g class="entity" data-qualified-name=".....BackupTask" id="ent0003" data-source-line="16"><rect x="572.5" y="425.272" width="154.597" height="121.296" fill="#F1F1F1" style="stroke:#181818;stroke-width:0.5;" rx="2.5" ry="2.5"/><ellipse cx="609.276" cy="440.272" rx="10" ry="10" fill="#ADD1B2" style="stroke:#181818;stroke-width:1;"/><path d="M611.136,444.506 Q610.698,444.725 610.198,444.834 Q609.714,444.959 609.183,444.959 Q607.261,444.959 606.245,443.694 Q605.245,442.428 605.245,440.038 Q605.245,437.647 606.245,436.381 Q607.261,435.116 609.183,435.116 Q609.714,435.116 610.214,435.241 Q610.714,435.35 611.136,435.584 L611.136,437.663 Q610.651,437.225 610.198,437.022 Q609.745,436.803 609.261,436.803 Q608.245,436.803 607.714,437.631 Q607.183,438.444 607.183,440.038 Q607.183,441.647 607.714,442.459 Q608.245,443.272 609.261,443.272 Q609.745,443.272 610.198,443.069 Q610.651,442.866 611.136,442.413 L611.136,444.506 Z " fill="#000"/><text x="627.338" y="445.94" fill="#000" font-size="13" textLength="73.983" font-family="Noto Sans CJK SC">BackupTask</text><line x1="573.5" y1="455.272" x2="726.097" y2="455.272" style="stroke:#181818;stroke-width:0.5;"/><text x="578.5" y="474.352" fill="#000" font-size="13" textLength="82.589" font-family="Noto Sans CJK SC">+taskId: UUID</text><text x="578.5" y="493.176" fill="#000" font-size="13" textLength="119.34" font-family="Noto Sans CJK SC">+sourcePath: String</text><text x="578.5" y="512" fill="#000" font-size="13" textLength="102.245" font-family="Noto Sans CJK SC">+revision: UInt64</text><text x="578.5" y="530.824" fill="#000" font-size="13" textLength="142.597" font-family="Noto Sans CJK SC">+realtimeEnabled: Bool</text><line x1="573.5" y1="538.568" x2="726.097" y2="538.568" style="stroke:#181818;stroke-width:0.5;"/></g><!--class FilterPolicy--><g class="entity" data-qualified-name=".....FilterPolicy" id="ent0004" data-source-line="22"><rect x="514" y="613.772" width="146.433" height="121.296" fill="#F1F1F1" style="stroke:#181818;stroke-width:0.5;" rx="2.5" ry="2.5"/><ellipse cx="549.63" cy="628.772" rx="10" ry="10" fill="#ADD1B2" style="stroke:#181818;stroke-width:1;"/><path d="M551.489,633.006 Q551.052,633.225 550.552,633.334 Q550.067,633.459 549.536,633.459 Q547.614,633.459 546.598,632.194 Q545.598,630.928 545.598,628.538 Q545.598,626.147 546.598,624.881 Q547.614,623.616 549.536,623.616 Q550.067,623.616 550.567,623.741 Q551.067,623.85 551.489,624.084 L551.489,626.163 Q551.005,625.725 550.552,625.522 Q550.098,625.303 549.614,625.303 Q548.598,625.303 548.067,626.131 Q547.536,626.944 547.536,628.538 Q547.536,630.147 548.067,630.959 Q548.598,631.772 549.614,631.772 Q550.098,631.772 550.552,631.569 Q551.005,631.366 551.489,630.913 L551.489,633.006 Z " fill="#000"/><text x="567.436" y="634.44" fill="#000" font-size="13" textLength="68.367" font-family="Noto Sans CJK SC">FilterPolicy</text><line x1="515" y1="643.772" x2="659.433" y2="643.772" style="stroke:#181818;stroke-width:0.5;"/><text x="520" y="662.852" fill="#000" font-size="13" textLength="102.245" font-family="Noto Sans CJK SC">+revision: UInt64</text><text x="520" y="681.676" fill="#000" font-size="13" textLength="124.969" font-family="Noto Sans CJK SC">+includeRules: Rules</text><text x="520" y="700.5" fill="#000" font-size="13" textLength="127.14" font-family="Noto Sans CJK SC">+excludeRules: Rules</text><line x1="515" y1="708.244" x2="659.433" y2="708.244" style="stroke:#181818;stroke-width:0.5;"/><text x="520" y="727.324" fill="#000" font-size="13" textLength="134.433" font-family="Noto Sans CJK SC">+matches(entry): Bool</text></g><!--class Operation--><g class="entity" data-qualified-name=".....Operation" id="ent0005" data-source-line="28"><rect x="678" y="604.272" width="149.774" height="140.12" fill="#F1F1F1" style="stroke:#181818;stroke-width:0.5;" rx="2.5" ry="2.5"/><ellipse cx="718.199" cy="619.272" rx="10" ry="10" fill="#ADD1B2" style="stroke:#181818;stroke-width:1;"/><path d="M720.058,623.506 Q719.62,623.725 719.12,623.834 Q718.636,623.959 718.105,623.959 Q716.183,623.959 715.167,622.694 Q714.167,621.428 714.167,619.038 Q714.167,616.647 715.167,615.381 Q716.183,614.116 718.105,614.116 Q718.636,614.116 719.136,614.241 Q719.636,614.35 720.058,614.584 L720.058,616.663 Q719.574,616.225 719.12,616.022 Q718.667,615.803 718.183,615.803 Q717.167,615.803 716.636,616.631 Q716.105,617.444 716.105,619.038 Q716.105,620.647 716.636,621.459 Q717.167,622.272 718.183,622.272 Q718.667,622.272 719.12,622.069 Q719.574,621.866 720.058,621.413 L720.058,623.506 Z " fill="#000"/><text x="737.02" y="624.94" fill="#000" font-size="13" textLength="61.555" font-family="Noto Sans CJK SC">Operation</text><line x1="679" y1="634.272" x2="826.774" y2="634.272" style="stroke:#181818;stroke-width:0.5;"/><text x="684" y="653.352" fill="#000" font-size="13" textLength="116.896" font-family="Noto Sans CJK SC">+operationId: UUID</text><text x="684" y="672.176" fill="#000" font-size="13" textLength="130" font-family="Noto Sans CJK SC">+kind: OperationKind</text><text x="684" y="691" fill="#000" font-size="13" textLength="137.774" font-family="Noto Sans CJK SC">+state: OperationState</text><text x="684" y="709.824" fill="#000" font-size="13" textLength="81.081" font-family="Noto Sans CJK SC">+stage: Stage</text><text x="684" y="728.648" fill="#000" font-size="13" textLength="119.366" font-family="Noto Sans CJK SC">+progress: Progress</text><line x1="679" y1="736.392" x2="826.774" y2="736.392" style="stroke:#181818;stroke-width:0.5;"/></g><!--class Repository--><g class="entity" data-qualified-name=".....Repository" id="ent0006" data-source-line="35"><rect x="284.5" y="246.272" width="152.777" height="121.296" fill="#F1F1F1" style="stroke:#181818;stroke-width:0.5;" rx="2.5" ry="2.5"/><ellipse cx="324.207" cy="261.272" rx="10" ry="10" fill="#ADD1B2" style="stroke:#181818;stroke-width:1;"/><path d="M326.067,265.506 Q325.629,265.725 325.129,265.834 Q324.645,265.959 324.113,265.959 Q322.192,265.959 321.176,264.694 Q320.176,263.428 320.176,261.038 Q320.176,258.647 321.176,257.381 Q322.192,256.116 324.113,256.116 Q324.645,256.116 325.145,256.241 Q325.645,256.35 326.067,256.584 L326.067,258.663 Q325.582,258.225 325.129,258.022 Q324.676,257.803 324.192,257.803 Q323.176,257.803 322.645,258.631 Q322.113,259.444 322.113,261.038 Q322.113,262.647 322.645,263.459 Q323.176,264.272 324.192,264.272 Q324.676,264.272 325.129,264.069 Q325.582,263.866 326.067,263.413 L326.067,265.506 Z " fill="#000"/><text x="342.92" y="266.94" fill="#000" font-size="13" textLength="65.65" font-family="Noto Sans CJK SC">Repository</text><line x1="285.5" y1="276.272" x2="436.277" y2="276.272" style="stroke:#181818;stroke-width:0.5;"/><text x="290.5" y="295.352" fill="#000" font-size="13" textLength="85.293" font-family="Noto Sans CJK SC">+repoId: UUID</text><text x="290.5" y="314.176" fill="#000" font-size="13" textLength="140.777" font-family="Noto Sans CJK SC">+formatVersion: UInt32</text><text x="290.5" y="333" fill="#000" font-size="13" textLength="103.532" font-family="Noto Sans CJK SC">+encrypted: Bool</text><text x="290.5" y="351.824" fill="#000" font-size="13" textLength="139.334" font-family="Noto Sans CJK SC">+publicKeyWrap: Bytes</text><line x1="285.5" y1="359.568" x2="436.277" y2="359.568" style="stroke:#181818;stroke-width:0.5;"/></g><!--class BackupVersion--><g class="entity" data-qualified-name=".....BackupVersion" id="ent0007" data-source-line="41"><rect x="296.5" y="425.272" width="174.773" height="121.296" fill="#F1F1F1" style="stroke:#181818;stroke-width:0.5;" rx="2.5" ry="2.5"/><ellipse cx="334.786" cy="440.272" rx="10" ry="10" fill="#ADD1B2" style="stroke:#181818;stroke-width:1;"/><path d="M336.645,444.506 Q336.207,444.725 335.707,444.834 Q335.223,444.959 334.692,444.959 Q332.77,444.959 331.754,443.694 Q330.754,442.428 330.754,440.038 Q330.754,437.647 331.754,436.381 Q332.77,435.116 334.692,435.116 Q335.223,435.116 335.723,435.241 Q336.223,435.35 336.645,435.584 L336.645,437.663 Q336.161,437.225 335.707,437.022 Q335.254,436.803 334.77,436.803 Q333.754,436.803 333.223,437.631 Q332.692,438.444 332.692,440.038 Q332.692,441.647 333.223,442.459 Q333.754,443.272 334.77,443.272 Q335.254,443.272 335.707,443.069 Q336.161,442.866 336.645,442.413 L336.645,444.506 Z " fill="#000"/><text x="353.182" y="445.94" fill="#000" font-size="13" textLength="90.805" font-family="Noto Sans CJK SC">BackupVersion</text><line x1="297.5" y1="455.272" x2="470.273" y2="455.272" style="stroke:#181818;stroke-width:0.5;"/><text x="302.5" y="474.352" fill="#000" font-size="13" textLength="101.595" font-family="Noto Sans CJK SC">+versionId: UUID</text><text x="302.5" y="493.176" fill="#000" font-size="13" textLength="121.407" font-family="Noto Sans CJK SC">+state: VersionState</text><text x="302.5" y="512" fill="#000" font-size="13" textLength="135.811" font-family="Noto Sans CJK SC">+manifestHash: Digest</text><text x="302.5" y="530.824" fill="#000" font-size="13" textLength="162.773" font-family="Noto Sans CJK SC">+committedAt: Timestamp</text><line x1="297.5" y1="538.568" x2="470.273" y2="538.568" style="stroke:#181818;stroke-width:0.5;"/></g><!--class VersionManifest--><g class="entity" data-qualified-name=".....VersionManifest" id="ent0008" data-source-line="47"><rect x="296" y="604.272" width="199.525" height="140.12" fill="#F1F1F1" style="stroke:#181818;stroke-width:0.5;" rx="2.5" ry="2.5"/><ellipse cx="343.273" cy="619.272" rx="10" ry="10" fill="#ADD1B2" style="stroke:#181818;stroke-width:1;"/><path d="M345.132,623.506 Q344.694,623.725 344.194,623.834 Q343.71,623.959 343.179,623.959 Q341.257,623.959 340.241,622.694 Q339.241,621.428 339.241,619.038 Q339.241,616.647 340.241,615.381 Q341.257,614.116 343.179,614.116 Q343.71,614.116 344.21,614.241 Q344.71,614.35 345.132,614.584 L345.132,616.663 Q344.648,616.225 344.194,616.022 Q343.741,615.803 343.257,615.803 Q342.241,615.803 341.71,616.631 Q341.179,617.444 341.179,619.038 Q341.179,620.647 341.71,621.459 Q342.241,622.272 343.257,622.272 Q343.741,622.272 344.194,622.069 Q344.648,621.866 345.132,621.413 L345.132,623.506 Z " fill="#000"/><text x="362.273" y="624.94" fill="#000" font-size="13" textLength="96.98" font-family="Noto Sans CJK SC">VersionManifest</text><line x1="297" y1="634.272" x2="494.525" y2="634.272" style="stroke:#181818;stroke-width:0.5;"/><text x="302" y="653.352" fill="#000" font-size="13" textLength="140.777" font-family="Noto Sans CJK SC">+formatVersion: UInt32</text><text x="302" y="672.176" fill="#000" font-size="13" textLength="187.525" font-family="Noto Sans CJK SC">+rootMetadata: LinuxMetadata</text><text x="302" y="691" fill="#000" font-size="13" textLength="163.748" font-family="Noto Sans CJK SC">+ruleSnapshot: FilterPolicy</text><text x="302" y="709.824" fill="#000" font-size="13" textLength="146.302" font-family="Noto Sans CJK SC">+referencesHash: Digest</text><line x1="297" y1="717.568" x2="494.525" y2="717.568" style="stroke:#181818;stroke-width:0.5;"/><text x="302" y="736.648" fill="#000" font-size="13" textLength="141.024" font-family="Noto Sans CJK SC">+entries(): EntryStream</text></g><!--class ManifestEntry--><g class="entity" data-qualified-name=".....ManifestEntry" id="ent0009" data-source-line="54"><rect x="308.5" y="802.272" width="175.306" height="140.12" fill="#F1F1F1" style="stroke:#181818;stroke-width:0.5;" rx="2.5" ry="2.5"/><ellipse cx="350.105" cy="817.272" rx="10" ry="10" fill="#ADD1B2" style="stroke:#181818;stroke-width:1;"/><path d="M351.964,821.506 Q351.526,821.725 351.026,821.834 Q350.542,821.959 350.011,821.959 Q348.089,821.959 347.073,820.694 Q346.073,819.428 346.073,817.038 Q346.073,814.647 347.073,813.381 Q348.089,812.116 350.011,812.116 Q350.542,812.116 351.042,812.241 Q351.542,812.35 351.964,812.584 L351.964,814.663 Q351.48,814.225 351.026,814.022 Q350.573,813.803 350.089,813.803 Q349.073,813.803 348.542,814.631 Q348.011,815.444 348.011,817.038 Q348.011,818.647 348.542,819.459 Q349.073,820.272 350.089,820.272 Q350.573,820.272 351.026,820.069 Q351.48,819.866 351.964,819.413 L351.964,821.506 Z " fill="#000"/><text x="369.105" y="822.94" fill="#000" font-size="13" textLength="84.097" font-family="Noto Sans CJK SC">ManifestEntry</text><line x1="309.5" y1="832.272" x2="482.806" y2="832.272" style="stroke:#181818;stroke-width:0.5;"/><text x="314.5" y="851.352" fill="#000" font-size="13" textLength="124.319" font-family="Noto Sans CJK SC">+relativePath: String</text><text x="314.5" y="870.176" fill="#000" font-size="13" textLength="100.75" font-family="Noto Sans CJK SC">+kind: EntryKind</text><text x="314.5" y="889" fill="#000" font-size="13" textLength="108.03" font-family="Noto Sans CJK SC">+objectId: Digest?</text><text x="314.5" y="907.824" fill="#000" font-size="13" textLength="118.391" font-family="Noto Sans CJK SC">+linkTarget: String?</text><text x="314.5" y="926.648" fill="#000" font-size="13" textLength="163.306" font-family="Noto Sans CJK SC">+metadata: LinuxMetadata</text><line x1="309.5" y1="934.392" x2="482.806" y2="934.392" style="stroke:#181818;stroke-width:0.5;"/></g><!--class ContentObject--><g class="entity" data-qualified-name=".....ContentObject" id="ent0010" data-source-line="61"><rect x="276" y="1000.272" width="147.551" height="121.296" fill="#F1F1F1" style="stroke:#181818;stroke-width:0.5;" rx="2.5" ry="2.5"/><ellipse cx="302.837" cy="1015.272" rx="10" ry="10" fill="#ADD1B2" style="stroke:#181818;stroke-width:1;"/><path d="M304.697,1019.506 Q304.259,1019.725 303.759,1019.834 Q303.275,1019.959 302.743,1019.959 Q300.822,1019.959 299.806,1018.694 Q298.806,1017.428 298.806,1015.038 Q298.806,1012.647 299.806,1011.381 Q300.822,1010.116 302.743,1010.116 Q303.275,1010.116 303.775,1010.241 Q304.275,1010.35 304.697,1010.584 L304.697,1012.663 Q304.212,1012.225 303.759,1012.022 Q303.306,1011.803 302.822,1011.803 Q301.806,1011.803 301.275,1012.631 Q300.743,1013.444 300.743,1015.038 Q300.743,1016.647 301.275,1017.459 Q301.806,1018.272 302.822,1018.272 Q303.306,1018.272 303.759,1018.069 Q304.212,1017.866 304.697,1017.413 L304.697,1019.506 Z " fill="#000"/><text x="318.69" y="1020.94" fill="#000" font-size="13" textLength="89.024" font-family="Noto Sans CJK SC">ContentObject</text><line x1="277" y1="1030.272" x2="422.551" y2="1030.272" style="stroke:#181818;stroke-width:0.5;"/><text x="282" y="1049.352" fill="#000" font-size="13" textLength="101.868" font-family="Noto Sans CJK SC">+objectId: Digest</text><text x="282" y="1068.176" fill="#000" font-size="13" textLength="118.053" font-family="Noto Sans CJK SC">+storedSize: UInt64</text><text x="282" y="1087" fill="#000" font-size="13" textLength="135.551" font-family="Noto Sans CJK SC">+storedSha256: Digest</text><text x="282" y="1105.824" fill="#000" font-size="13" textLength="127.27" font-family="Noto Sans CJK SC">+encoding: Encoding</text><line x1="277" y1="1113.568" x2="422.551" y2="1113.568" style="stroke:#181818;stroke-width:0.5;"/></g><!--class BackupCoordinator--><g class="entity" data-qualified-name="Agent ...BackupCoordinator" id="ent0012" data-source-line="69"><rect x="897" y="264.772" width="149.813" height="83.648" fill="#F1F1F1" style="stroke:#181818;stroke-width:0.5;" rx="2.5" ry="2.5"/><ellipse cx="911.178" cy="279.772" rx="10" ry="10" fill="#ADD1B2" style="stroke:#181818;stroke-width:1;"/><path d="M913.037,284.006 Q912.6,284.225 912.1,284.334 Q911.615,284.459 911.084,284.459 Q909.162,284.459 908.146,283.194 Q907.146,281.928 907.146,279.538 Q907.146,277.147 908.146,275.881 Q909.162,274.616 911.084,274.616 Q911.615,274.616 912.115,274.741 Q912.615,274.85 913.037,275.084 L913.037,277.163 Q912.553,276.725 912.1,276.522 Q911.646,276.303 911.162,276.303 Q910.146,276.303 909.615,277.131 Q909.084,277.944 909.084,279.538 Q909.084,281.147 909.615,281.959 Q910.146,282.772 911.162,282.772 Q911.646,282.772 912.1,282.569 Q912.553,282.366 913.037,281.913 L913.037,284.006 Z " fill="#000"/><text x="924.217" y="285.44" fill="#000" font-size="13" textLength="119.418" font-family="Noto Sans CJK SC">BackupCoordinator</text><line x1="898" y1="294.772" x2="1045.813" y2="294.772" style="stroke:#181818;stroke-width:0.5;"/><line x1="898" y1="302.772" x2="1045.813" y2="302.772" style="stroke:#181818;stroke-width:0.5;"/><text x="903" y="321.852" fill="#000" font-size="13" textLength="137.813" font-family="Noto Sans CJK SC">+start(task): Operation</text><text x="903" y="340.676" fill="#000" font-size="13" textLength="126.646" font-family="Noto Sans CJK SC">+commit(): VersionId</text></g><!--class DirectoryScanner--><g class="entity" data-qualified-name="Agent ...DirectoryScanner" id="ent0013" data-source-line="73"><rect x="876.5" y="453.272" width="184.952" height="64.824" fill="#F1F1F1" style="stroke:#181818;stroke-width:0.5;" rx="2.5" ry="2.5"/><ellipse cx="912.621" cy="468.272" rx="10" ry="10" fill="#ADD1B2" style="stroke:#181818;stroke-width:1;"/><path d="M914.48,472.506 Q914.043,472.725 913.543,472.834 Q913.059,472.959 912.527,472.959 Q910.605,472.959 909.59,471.694 Q908.59,470.428 908.59,468.038 Q908.59,465.647 909.59,464.381 Q910.605,463.116 912.527,463.116 Q913.059,463.116 913.559,463.241 Q914.059,463.35 914.48,463.584 L914.48,465.663 Q913.996,465.225 913.543,465.022 Q913.09,464.803 912.605,464.803 Q911.59,464.803 911.059,465.631 Q910.527,466.444 910.527,468.038 Q910.527,469.647 911.059,470.459 Q911.59,471.272 912.605,471.272 Q913.09,471.272 913.543,471.069 Q913.996,470.866 914.48,470.413 L914.48,472.506 Z " fill="#000"/><text x="930.537" y="473.94" fill="#000" font-size="13" textLength="105.794" font-family="Noto Sans CJK SC">DirectoryScanner</text><line x1="877.5" y1="483.272" x2="1060.452" y2="483.272" style="stroke:#181818;stroke-width:0.5;"/><line x1="877.5" y1="491.272" x2="1060.452" y2="491.272" style="stroke:#181818;stroke-width:0.5;"/><text x="882.5" y="510.352" fill="#000" font-size="13" textLength="172.952" font-family="Noto Sans CJK SC">+scan(task): VersionManifest</text></g><!--class ChangeWatcher--><g class="entity" data-qualified-name="Agent ...ChangeWatcher" id="ent0014" data-source-line="76"><rect x="909" y="90.272" width="126.369" height="83.648" fill="#F1F1F1" style="stroke:#181818;stroke-width:0.5;" rx="2.5" ry="2.5"/><ellipse cx="923" cy="105.272" rx="10" ry="10" fill="#ADD1B2" style="stroke:#181818;stroke-width:1;"/><path d="M924.859,109.506 Q924.422,109.725 923.922,109.834 Q923.438,109.959 922.906,109.959 Q920.984,109.959 919.969,108.694 Q918.969,107.428 918.969,105.038 Q918.969,102.647 919.969,101.381 Q920.984,100.116 922.906,100.116 Q923.438,100.116 923.938,100.241 Q924.438,100.35 924.859,100.584 L924.859,102.663 Q924.375,102.225 923.922,102.022 Q923.469,101.803 922.984,101.803 Q921.969,101.803 921.438,102.631 Q920.906,103.444 920.906,105.038 Q920.906,106.647 921.438,107.459 Q921.969,108.272 922.984,108.272 Q923.469,108.272 923.922,108.069 Q924.375,107.866 924.859,107.413 L924.859,109.506 Z " fill="#000"/><text x="936" y="110.94" fill="#000" font-size="13" textLength="96.369" font-family="Noto Sans CJK SC">ChangeWatcher</text><line x1="910" y1="120.272" x2="1034.369" y2="120.272" style="stroke:#181818;stroke-width:0.5;"/><line x1="910" y1="128.272" x2="1034.369" y2="128.272" style="stroke:#181818;stroke-width:0.5;"/><text x="915" y="147.352" fill="#000" font-size="13" textLength="102.297" font-family="Noto Sans CJK SC">+markDirty(task)</text><text x="915" y="166.176" fill="#000" font-size="13" textLength="97.266" font-family="Noto Sans CJK SC">+reconcile(task)</text></g><!--class RestoreEngine--><g class="entity" data-qualified-name="Agent ...RestoreEngine" id="ent0015" data-source-line="80"><rect x="1065.5" y="274.272" width="269.01" height="64.824" fill="#F1F1F1" style="stroke:#181818;stroke-width:0.5;" rx="2.5" ry="2.5"/><ellipse cx="1151.909" cy="289.272" rx="10" ry="10" fill="#ADD1B2" style="stroke:#181818;stroke-width:1;"/><path d="M1153.768,293.506 Q1153.331,293.725 1152.831,293.834 Q1152.347,293.959 1151.815,293.959 Q1149.893,293.959 1148.878,292.694 Q1147.878,291.428 1147.878,289.038 Q1147.878,286.647 1148.878,285.381 Q1149.893,284.116 1151.815,284.116 Q1152.347,284.116 1152.847,284.241 Q1153.347,284.35 1153.768,284.584 L1153.768,286.663 Q1153.284,286.225 1152.831,286.022 Q1152.378,285.803 1151.893,285.803 Q1150.878,285.803 1150.347,286.631 Q1149.815,287.444 1149.815,289.038 Q1149.815,290.647 1150.347,291.459 Q1150.878,292.272 1151.893,292.272 Q1152.378,292.272 1152.831,292.069 Q1153.284,291.866 1153.768,291.413 L1153.768,293.506 Z " fill="#000"/><text x="1170.909" y="294.94" fill="#000" font-size="13" textLength="88.192" font-family="Noto Sans CJK SC">RestoreEngine</text><line x1="1066.5" y1="304.272" x2="1333.51" y2="304.272" style="stroke:#181818;stroke-width:0.5;"/><line x1="1066.5" y1="312.272" x2="1333.51" y2="312.272" style="stroke:#181818;stroke-width:0.5;"/><text x="1071.5" y="331.352" fill="#000" font-size="13" textLength="257.01" font-family="Noto Sans CJK SC">+restore(version, emptyTarget): Operation</text></g><!--class ObjectCodec--><g class="entity" data-qualified-name="Agent ...ObjectCodec" id="ent0016" data-source-line="83"><rect x="1079.5" y="443.772" width="255.334" height="83.648" fill="#F1F1F1" style="stroke:#181818;stroke-width:0.5;" rx="2.5" ry="2.5"/><ellipse cx="1164.141" cy="458.772" rx="10" ry="10" fill="#ADD1B2" style="stroke:#181818;stroke-width:1;"/><path d="M1166,463.006 Q1165.563,463.225 1165.063,463.334 Q1164.579,463.459 1164.047,463.459 Q1162.125,463.459 1161.11,462.194 Q1160.11,460.928 1160.11,458.538 Q1160.11,456.147 1161.11,454.881 Q1162.125,453.616 1164.047,453.616 Q1164.579,453.616 1165.079,453.741 Q1165.579,453.85 1166,454.084 L1166,456.163 Q1165.516,455.725 1165.063,455.522 Q1164.61,455.303 1164.125,455.303 Q1163.11,455.303 1162.579,456.131 Q1162.047,456.944 1162.047,458.538 Q1162.047,460.147 1162.579,460.959 Q1163.11,461.772 1164.125,461.772 Q1164.61,461.772 1165.063,461.569 Q1165.516,461.366 1166,460.913 L1166,463.006 Z " fill="#000"/><text x="1183.141" y="464.44" fill="#000" font-size="13" textLength="78.052" font-family="Noto Sans CJK SC">ObjectCodec</text><line x1="1080.5" y1="473.772" x2="1333.834" y2="473.772" style="stroke:#181818;stroke-width:0.5;"/><line x1="1080.5" y1="481.772" x2="1333.834" y2="481.772" style="stroke:#181818;stroke-width:0.5;"/><text x="1085.5" y="500.852" fill="#000" font-size="13" textLength="207.688" font-family="Noto Sans CJK SC">+encode(stream): EncodedStream</text><text x="1085.5" y="519.676" fill="#000" font-size="13" textLength="243.334" font-family="Noto Sans CJK SC">+decodeAndVerify(stream): PlainStream</text></g><!--class VersionCatalog--><g class="entity" data-qualified-name="Server ...VersionCatalog" id="ent0018" data-source-line="89"><rect x="30" y="255.772" width="198.433" height="102.472" fill="#F1F1F1" style="stroke:#181818;stroke-width:0.5;" rx="2.5" ry="2.5"/><ellipse cx="79.255" cy="270.772" rx="10" ry="10" fill="#ADD1B2" style="stroke:#181818;stroke-width:1;"/><path d="M81.114,275.006 Q80.677,275.225 80.177,275.334 Q79.693,275.459 79.161,275.459 Q77.239,275.459 76.224,274.194 Q75.224,272.928 75.224,270.538 Q75.224,268.147 76.224,266.881 Q77.239,265.616 79.161,265.616 Q79.693,265.616 80.193,265.741 Q80.693,265.85 81.114,266.084 L81.114,268.163 Q80.63,267.725 80.177,267.522 Q79.724,267.303 79.239,267.303 Q78.224,267.303 77.693,268.131 Q77.161,268.944 77.161,270.538 Q77.161,272.147 77.693,272.959 Q78.224,273.772 79.239,273.772 Q79.724,273.772 80.177,273.569 Q80.63,273.366 81.114,272.913 L81.114,275.006 Z " fill="#000"/><text x="98.255" y="276.44" fill="#000" font-size="13" textLength="91.923" font-family="Noto Sans CJK SC">VersionCatalog</text><line x1="31" y1="285.772" x2="227.433" y2="285.772" style="stroke:#181818;stroke-width:0.5;"/><line x1="31" y1="293.772" x2="227.433" y2="293.772" style="stroke:#181818;stroke-width:0.5;"/><text x="36" y="312.852" fill="#000" font-size="13" textLength="186.433" font-family="Noto Sans CJK SC">+commit(operation): VersionId</text><text x="36" y="331.676" fill="#000" font-size="13" textLength="120.237" font-family="Noto Sans CJK SC">+list(repo): Versions</text><text x="36" y="350.5" fill="#000" font-size="13" textLength="146.289" font-family="Noto Sans CJK SC">+applyRetention(policy)</text></g><!--class RepositoryStore--><g class="entity" data-qualified-name="Server ...RepositoryStore" id="ent0019" data-source-line="94"><rect x="70" y="434.772" width="151.672" height="102.472" fill="#F1F1F1" style="stroke:#181818;stroke-width:0.5;" rx="2.5" ry="2.5"/><ellipse cx="94.462" cy="449.772" rx="10" ry="10" fill="#ADD1B2" style="stroke:#181818;stroke-width:1;"/><path d="M96.321,454.006 Q95.884,454.225 95.384,454.334 Q94.9,454.459 94.368,454.459 Q92.446,454.459 91.431,453.194 Q90.431,451.928 90.431,449.538 Q90.431,447.147 91.431,445.881 Q92.446,444.616 94.368,444.616 Q94.9,444.616 95.4,444.741 Q95.9,444.85 96.321,445.084 L96.321,447.163 Q95.837,446.725 95.384,446.522 Q94.931,446.303 94.446,446.303 Q93.431,446.303 92.9,447.131 Q92.368,447.944 92.368,449.538 Q92.368,451.147 92.9,451.959 Q93.431,452.772 94.446,452.772 Q94.931,452.772 95.384,452.569 Q95.837,452.366 96.321,451.913 L96.321,454.006 Z " fill="#000"/><text x="109.787" y="455.44" fill="#000" font-size="13" textLength="98.423" font-family="Noto Sans CJK SC">RepositoryStore</text><line x1="71" y1="464.772" x2="220.672" y2="464.772" style="stroke:#181818;stroke-width:0.5;"/><line x1="71" y1="472.772" x2="220.672" y2="472.772" style="stroke:#181818;stroke-width:0.5;"/><text x="76" y="491.852" fill="#000" font-size="13" textLength="117.637" font-family="Noto Sans CJK SC">+putStaged(object)</text><text x="76" y="510.676" fill="#000" font-size="13" textLength="136.305" font-family="Noto Sans CJK SC">+get(objectId): Stream</text><text x="76" y="529.5" fill="#000" font-size="13" textLength="139.672" font-family="Noto Sans CJK SC">+collectUnreferenced()</text></g><g class="link" data-entity-1="ent0002" data-entity-2="ent0003" id="lnk20" data-link-type="dependency"><polygon points="650,367.696,646,376.696,650,372.696,654,376.696,650,367.696" fill="#181818" style="stroke:#181818;stroke-width:1;stroke-linejoin:miter;stroke-miterlimit:10;"/><path d="M650,372.696 C650,391.25 650,406.681 650,425.21" style="stroke:#181818;stroke-width:1;" fill="none"/><text x="652" y="402.352" fill="#000" font-size="13" textLength="26" font-family="Noto Sans CJK SC">目标</text><text x="629" y="421.29" fill="#000" font-size="13" textLength="20.514" font-family="Noto Sans CJK SC">0..*</text><text x="642" y="383.776" fill="#000" font-size="13" font-family="Noto Sans CJK SC">1</text></g><g class="link" data-entity-1="ent0003" data-entity-2="ent0004" id="lnk21" data-link-type="composition"><polygon points="629.893,546.294,624.183,550.699,626.053,557.663,631.763,553.259,629.893,546.294" fill="#181818" style="stroke:#181818;stroke-width:1;stroke-linejoin:miter;stroke-miterlimit:10;"/><path d="M626.053,557.663 C618.779,579.197 614.408,592.135 607.132,613.675" style="stroke:#181818;stroke-width:1;" fill="none"/><text x="599.132" y="609.755" fill="#000" font-size="13" font-family="Noto Sans CJK SC">1</text><text x="621.893" y="562.374" fill="#000" font-size="13" font-family="Noto Sans CJK SC">1</text></g><g class="link" data-entity-1="ent0003" data-entity-2="ent0005" id="lnk22" data-link-type="dependency"><polygon points="682.873,546.294,683.723,556.107,685.29,550.671,690.726,552.239,682.873,546.294" fill="#181818" style="stroke:#181818;stroke-width:1;stroke-linejoin:miter;stroke-miterlimit:10;"/><path d="M685.29,550.671 C695.476,569.114 704.367,585.213 714.877,604.243" style="stroke:#181818;stroke-width:1;" fill="none"/><text x="707" y="581.352" fill="#000" font-size="13" textLength="91" font-family="Noto Sans CJK SC">历史独立于任务</text><text x="693.877" y="600.323" fill="#000" font-size="13" textLength="20.514" font-family="Noto Sans CJK SC">0..*</text><text x="660.873" y="562.374" fill="#000" font-size="13" textLength="21.658" font-family="Noto Sans CJK SC">0..1</text></g><g class="link" data-entity-1="ent0006" data-entity-2="ent0007" id="lnk23" data-link-type="composition"><polygon points="368.787,367.696,365.593,374.161,370.333,379.596,373.527,373.131,368.787,367.696" fill="#181818" style="stroke:#181818;stroke-width:1;stroke-linejoin:miter;stroke-miterlimit:10;"/><path d="M370.333,379.596 C372.744,398.15 373.853,406.681 376.26,425.21" style="stroke:#181818;stroke-width:1;" fill="none"/><text x="355.26" y="421.29" fill="#000" font-size="13" textLength="20.514" font-family="Noto Sans CJK SC">0..*</text><text x="360.787" y="383.776" fill="#000" font-size="13" font-family="Noto Sans CJK SC">1</text></g><g class="link" data-entity-1="ent0007" data-entity-2="ent0008" id="lnk24" data-link-type="composition"><polygon points="387.83,546.294,384.223,552.539,388.6,558.27,392.207,552.025,387.83,546.294" fill="#181818" style="stroke:#181818;stroke-width:1;stroke-linejoin:miter;stroke-miterlimit:10;"/><path d="M388.6,558.27 C389.787,576.712 390.334,585.213 391.558,604.243" style="stroke:#181818;stroke-width:1;" fill="none"/><text x="383.558" y="600.323" fill="#000" font-size="13" font-family="Noto Sans CJK SC">1</text><text x="379.83" y="562.374" fill="#000" font-size="13" font-family="Noto Sans CJK SC">1</text></g><g class="link" data-entity-1="ent0008" data-entity-2="ent0009" id="lnk25" data-link-type="composition"><polygon points="396,744.374,392,750.374,396,756.374,400,750.374,396,744.374" fill="#181818" style="stroke:#181818;stroke-width:1;stroke-linejoin:miter;stroke-miterlimit:10;"/><path d="M396,756.374 C396,775.111 396,783.395 396,802.133" style="stroke:#181818;stroke-width:1;" fill="none"/><text x="398" y="779.352" fill="#000" font-size="13" textLength="39" font-family="Noto Sans CJK SC">条目流</text><text x="375" y="798.213" fill="#000" font-size="13" textLength="20.514" font-family="Noto Sans CJK SC">0..*</text><text x="388" y="760.454" fill="#000" font-size="13" font-family="Noto Sans CJK SC">1</text></g><g class="link" data-entity-1="ent0006" data-entity-2="ent0010" id="lnk26" data-link-type="composition"><polygon points="316.986,367.554,310.392,370.472,310.55,377.682,317.144,374.763,316.986,367.554" fill="#181818" style="stroke:#181818;stroke-width:1;stroke-linejoin:miter;stroke-miterlimit:10;"/><path d="M310.55,377.682 C299.228,395.498 294.558,405.449 287,425.272 C277.447,450.328 277,457.957 277,484.772 C277,484.772 277,484.772 277,873.272 C277,917.778 295.25,964.403 313.5,999.902" style="stroke:#181818;stroke-width:1;" fill="none"/><text x="292.5" y="995.982" fill="#000" font-size="13" textLength="20.514" font-family="Noto Sans CJK SC">0..*</text><text x="308.986" y="383.634" fill="#000" font-size="13" font-family="Noto Sans CJK SC">1</text></g><g class="link" data-entity-1="ent0009" data-entity-2="ent0010" id="lnk27" data-link-type="dependency"><polygon points="364.693,1000.201,370.732,992.421,365.891,995.346,362.965,990.505,364.693,1000.201" fill="#181818" style="stroke:#181818;stroke-width:1;stroke-linejoin:miter;stroke-miterlimit:10;"/><path d="M378.937,942.453 C374.258,961.423 370.424,976.966 365.891,995.346" style="stroke:#181818;stroke-width:1;" fill="none"/><text x="377" y="977.352" fill="#000" font-size="13" textLength="78" font-family="Noto Sans CJK SC">可跨版本复用</text><text x="342.693" y="996.281" fill="#000" font-size="13" textLength="21.658" font-family="Noto Sans CJK SC">0..1</text><text x="357.937" y="958.533" fill="#000" font-size="13" textLength="20.514" font-family="Noto Sans CJK SC">0..*</text></g><g class="link" data-entity-1="ent0012" data-entity-2="ent0013" id="lnk28" data-link-type="dependency"><polygon points="969.538,453.051,973.69,444.12,969.622,448.052,965.691,443.985,969.538,453.051" fill="#181818" style="stroke:#181818;stroke-width:1;stroke-linejoin:miter;stroke-miterlimit:10;"/><path d="M971.304,348.824 C970.766,380.585 970.116,418.921 969.622,448.052" style="stroke:#181818;stroke-width:1;stroke-dasharray:7,7;" fill="none"/></g><g class="link" data-entity-1="ent0013" data-entity-2="ent0004" id="lnk29" data-link-type="dependency"><polygon points="651.504,613.672,661.253,612.273,655.738,611.013,656.998,605.498,651.504,613.672" fill="#181818" style="stroke:#181818;stroke-width:1;stroke-linejoin:miter;stroke-miterlimit:10;"/><path d="M927.653,518.318 C895.653,541.034 849.293,570.372 804,586.272 C746.886,606.321 724.368,579.809 669,604.272 C663.044,606.904 661.417,607.446 655.738,611.013" style="stroke:#181818;stroke-width:1;stroke-dasharray:7,7;" fill="none"/></g><g class="link" data-entity-1="ent0014" data-entity-2="ent0012" id="lnk30" data-link-type="dependency"><polygon points="972,264.492,976,255.492,972,259.492,968,255.492,972,264.492" fill="#181818" style="stroke:#181818;stroke-width:1;stroke-linejoin:miter;stroke-miterlimit:10;"/><path d="M972,174.59 C972,201.801 972,232.289 972,259.492" style="stroke:#181818;stroke-width:1;stroke-dasharray:7,7;" fill="none"/></g><g class="link" data-entity-1="ent0012" data-entity-2="ent0016" id="lnk31" data-link-type="dependency"><polygon points="1152.385,443.636,1147.602,435.026,1148.391,440.628,1142.789,441.417,1152.385,443.636" fill="#181818" style="stroke:#181818;stroke-width:1;stroke-linejoin:miter;stroke-miterlimit:10;"/><path d="M1026.504,348.824 C1064.334,377.317 1110.537,412.117 1148.391,440.628" style="stroke:#181818;stroke-width:1;stroke-dasharray:7,7;" fill="none"/></g><g class="link" data-entity-1="ent0015" data-entity-2="ent0016" id="lnk32" data-link-type="dependency"><polygon points="1205.377,443.732,1209.018,434.581,1205.179,438.736,1201.024,434.897,1205.377,443.732" fill="#181818" style="stroke:#181818;stroke-width:1;stroke-linejoin:miter;stroke-miterlimit:10;"/><path d="M1201.251,339.416 C1202.404,368.551 1203.922,406.946 1205.179,438.736" style="stroke:#181818;stroke-width:1;stroke-dasharray:7,7;" fill="none"/></g><g class="link" data-entity-1="ent0012" data-entity-2="ent0005" id="lnk33" data-link-type="dependency"><polygon points="828.062,669.389,837.298,672.808,833.052,669.07,836.789,664.824,828.062,669.389" fill="#181818" style="stroke:#181818;stroke-width:1;stroke-linejoin:miter;stroke-miterlimit:10;"/><path d="M1023.518,348.794 C1034.136,355.794 1045.577,362.374 1057,367.272 C1176.603,418.555 1261.598,324.551 1344,425.272 C1379.882,469.131 1379.844,508.882 1344,552.772 C1279.626,631.595 977.285,659.871 833.052,669.07" style="stroke:#181818;stroke-width:1;stroke-dasharray:7,7;" fill="none"/></g><g class="link" data-entity-1="ent0015" data-entity-2="ent0005" id="lnk34" data-link-type="dependency"><polygon points="828.022,672.5,837.112,676.29,833.02,672.384,836.926,668.292,828.022,672.5" fill="#181818" style="stroke:#181818;stroke-width:1;stroke-linejoin:miter;stroke-miterlimit:10;"/><path d="M1278.882,339.357 C1314.591,358.336 1352.819,386.454 1371,425.272 C1395.035,476.589 1395.584,501.716 1371,552.772 C1324.198,649.968 987.202,668.802 833.02,672.384" style="stroke:#181818;stroke-width:1;stroke-dasharray:7,7;" fill="none"/></g><g class="link" data-entity-1="ent0018" data-entity-2="ent0007" id="lnk35" data-link-type="dependency"><polygon points="298.116,425.159,293.004,416.741,294.009,422.308,288.442,423.313,298.116,425.159" fill="#181818" style="stroke:#181818;stroke-width:1;stroke-linejoin:miter;stroke-miterlimit:10;"/><path d="M201.05,357.783 C231.242,378.74 262.479,400.422 294.009,422.308" style="stroke:#181818;stroke-width:1;stroke-dasharray:7,7;" fill="none"/></g><g class="link" data-entity-1="ent0018" data-entity-2="ent0019" id="lnk36" data-link-type="dependency"><polygon points="141.191,434.705,144.313,425.364,140.713,429.728,136.349,426.129,141.191,434.705" fill="#181818" style="stroke:#181818;stroke-width:1;stroke-linejoin:miter;stroke-miterlimit:10;"/><path d="M133.826,358.02 C136.133,382.038 138.409,405.733 140.713,429.728" style="stroke:#181818;stroke-width:1;" fill="none"/></g><g class="link" data-entity-1="ent0019" data-entity-2="ent0010" id="lnk37" data-link-type="dependency"><polygon points="284.106,1000.127,281.719,990.572,281.028,996.187,275.414,995.496,284.106,1000.127" fill="#181818" style="stroke:#181818;stroke-width:1;stroke-linejoin:miter;stroke-miterlimit:10;"/><path d="M149.878,536.809 C158.948,630.088 187.606,834.468 272,982.272 C275.502,988.406 276.544,990.445 281.028,996.187" style="stroke:#181818;stroke-width:1;stroke-dasharray:7,7;" fill="none"/></g><?plantuml-src VLPRRnj557xVNp7uoIuawWNwOA6Yr4b5I2zHtBJFuztnUl3ip6fsdDP09GeYJPecbIXKbLf8Z42AH9i894IKHF1ZyDhfK_u2P_RYtLaxVTgTSywSwtU-tVTyYLqF8uQxegDGu165EROKLOoWmSv1-E-tmp-E1hkzyEUDq-EruSkzmSwZaxr_JlPwfyVhLj2ctCSIUoXeOKVSezn5JSm2ajCuf8axJ5qJNDt47a4tXHAeZdc0Qfyje7fjiccTVa7GXKivPGFRRLUA3dTgWWc9xhMeoiUn6Gw26QKaRNGKcRS5ZtoSpvduu0AxfAwwK9qaDjJgCc8bObHw-yjgkBqTLrj2NreeTegkWa77lusbIrGaHkXz5PtcdIfQNfwVZMMUS4WLNHSsPkWhj4Gy0Hb66i8TNr2kggWE2N8tbahYYvo71sC1WtOMBcYRmGBHaJPPnAfLTBf20oeusCvpTVd3L8gPeXwPuxZ123YwAWGpObwZJ16vA1YrksdKoRuejrd78KiTHe8gYXv9bVVFK7XOsIqIb0bNibkP4FoMJoHM42cDB5A1MJIC4iuZwmKu9jrGM96SfgxF8vLBT8_W4KjyALn90iXnCNapabc2iGHK2PdhWp4ea3I5XABk49crvzB5TDQsxFegrsGTijE0nYwGxbs9VL1q5GacZ3nncCPTYO-5mSUb9gQvGZtCQPC4wbCS02PcgGlliSOMdaSLf3G32BmDC00Vdc_4JzpTI7oa6RoZJYc4kW5yuM250VMKT-wdnyG0053ds0zQ0iBcyPLsjKaaT8i4unbhf510381bJeC644wmPsISfXhfiqancF_AXBs8eHCPPx0HZS-11dH_u-2Vn696UJjUzzH7el3Eh3VBgmRq1UdVYboFy5m8b8vIIE9edZ8tB96tyCMFBXVxOWi7yj6Ln6zHx0SPYSsu41oTz9xq3mx7IQmcX8HR60AagG4Mf2fhWgda5YWF73s5EoaKZLfdgQPHs9IwZJadcKyufYuBo39xrG8A9dSZUXXTzh1iWsFLZJsaWmL6joaZ8s5-OQE6pN6NSf8X8HAMantw017FLzrugeL2SpmKZQa6F6wdVgAEat8G0R2Iz1s6am8IJC0QH3FSWL9fivlPBZ9CUGwwkJ7LYOJC9imfQLSDOCM4csQH3694YuM9H9WDL5aJLQPAs1VxFkik4GrA49RzQ0KhPr1UNJSjZUftL4IRJZd6Rp8Bw60v1NGbsf1HAsp16CYN-MYvdN8bgTtuZ9OkbD37KrEeT7vw-bmf_yMhelWtmyh9jFKvRGrFWqZoDk39T9fzLQeet5eDd_uvt7Wz_7sZVxZLFpeA7_Ui7DMFGkGJIXffcUoSpwQ8xYAF5joQf5L5Wvzwkjg_7huZ5ODGBDD3OZ8rTIMjtwGVAFpf_idVkyFrjS6hr-6lcyCVTgrnAfYUlZAsozROScihe_lc-chrcEipWkKMpJBNjwWzu_veVIVS7kaAkvGbcCwrOA3RM5W5gxWQseav4Gw_UQWXb18U4arpnDRWuBjmyyTupE6R5x3iCEpJuvVXuvrmVxL_z2myVDO_U3DuiG_7mVD7_ttzZPLmG_zWS_3auU3LUhYr3Ph1slFO70pVVl-RDeJVIgIZ_my0?></g></svg>