<svg xmlns="http://www.w3.org/2000/svg" xmlns:xlink="http://www.w3.org/1999/xlink" version="1.1" data-diagram-type="DESCRIPTION" style="width:815px;height:1186px;background:#FFFFFF;" width="815px" height="1186px" viewBox="0 0 815 1186" zoomAndPan="magnify" preserveAspectRatio="none" contentStyleType="text/css"><?plantuml 1.2026.8?><defs/><g font-family="sans-serif" lengthAdjust="spacing"><g class="title" data-source-line="2"><text x="314.421" y="26.24" fill="#000" font-size="14" textLength="179.157" font-weight="700" font-family="Noto Sans CJK SC">Backup System 目标用例图</text></g><!--cluster Backup System（GUI / Agent / Server / Storage）--><g class="cluster" data-qualified-name="Backup System.GUI . Agent . Server . Storage." id="ent0004" data-source-line="14"><rect x="103" y="42.272" width="696" height="743" fill="none" style="stroke:#181818;stroke-width:1;" rx="2.5" ry="2.5"/><text x="283.848" y="60.512" fill="#000" font-size="14" textLength="334.305" font-weight="700" font-family="Noto Sans CJK SC">Backup System（GUI / Agent / Server / Storage）</text></g><!--cluster P0 核心--><g class="cluster" data-qualified-name="Backup System.GUI . Agent . Server . Storage..P0 .." id="ent0005" data-source-line="15"><rect x="119" y="89.272" width="392.5" height="543" fill="none" style="stroke:#181818;stroke-width:1;" rx="2.5" ry="2.5"/><text x="290.862" y="107.512" fill="#000" font-size="14" textLength="48.776" font-weight="700" font-family="Noto Sans CJK SC">P0 核心</text></g><!--cluster P1 后台与远端--><g class="cluster" data-qualified-name="Backup System.GUI . Agent . Server . Storage..P1 ....." id="ent0013" data-source-line="24"><rect x="357" y="648.272" width="197" height="121" fill="none" style="stroke:#181818;stroke-width:1;" rx="2.5" ry="2.5"/><text x="410.112" y="666.512" fill="#000" font-size="14" textLength="90.776" font-weight="700" font-family="Noto Sans CJK SC">P1 后台与远端</text></g><!--cluster P2 规则与仓库扩展--><g class="cluster" data-qualified-name="Backup System.GUI . Agent . Server . Storage..P2 ......." id="ent0015" data-source-line="27"><rect x="571" y="421.272" width="212" height="348" fill="none" style="stroke:#181818;stroke-width:1;" rx="2.5" ry="2.5"/><text x="617.612" y="439.512" fill="#000" font-size="14" textLength="118.775" font-weight="700" font-family="Noto Sans CJK SC">P2 规则与仓库扩展</text></g><!--entity User--><g class="entity" data-qualified-name="User" id="ent0001" data-source-line="11"><ellipse cx="41" cy="612.772" rx="8" ry="8" fill="#F1F1F1" style="stroke:#181818;stroke-width:0.5;"/><path d="M41,620.772 L41,647.772 M28,628.772 L54,628.772 M41,647.772 L28,662.772 M41,647.772 L54,662.772" style="stroke:#181818;stroke-width:0.5;" fill="none"/><text x="6" y="680.512" fill="#000" font-size="14" textLength="70" font-family="Noto Sans CJK SC">普通使用者</text></g><!--entity Operator--><g class="entity" data-qualified-name="Operator" id="ent0002" data-source-line="12"><ellipse cx="41" cy="191.772" rx="8" ry="8" fill="#F1F1F1" style="stroke:#181818;stroke-width:0.5;"/><path d="M41,199.772 L41,226.772 M28,207.772 L54,207.772 M41,226.772 L28,241.772 M41,226.772 L54,241.772" style="stroke:#181818;stroke-width:0.5;" fill="none"/><text x="6" y="259.512" fill="#000" font-size="14" textLength="70" font-family="Noto Sans CJK SC">部署维护者</text></g><!--entity Filesystem--><g class="entity" data-qualified-name="Filesystem" id="ent0003" data-source-line="13"><ellipse cx="200.5" cy="810.272" rx="8" ry="8" fill="#F1F1F1" style="stroke:#181818;stroke-width:0.5;"/><path d="M200.5,818.272 L200.5,845.272 M187.5,826.272 L213.5,826.272 M200.5,845.272 L187.5,860.272 M200.5,845.272 L213.5,860.272" style="stroke:#181818;stroke-width:0.5;" fill="none"/><text x="172.5" y="878.012" fill="#000" font-size="14" textLength="56" font-family="Noto Sans CJK SC">文件系统</text><text x="172.5" y="898.284" fill="#000" font-size="14" textLength="42" font-family="Noto Sans CJK SC">事件源</text></g><!--entity Tasks--><g class="entity" data-qualified-name="Backup System.GUI . Agent . Server . Storage..P0 ...Tasks" id="ent0006" data-source-line="16"><ellipse cx="200.459" cy="357.112" rx="65.459" ry="28.84" fill="#F4F7FA" style="stroke:#506575;stroke-width:0.5;"/><text x="180.747" y="349.364" fill="#000" font-size="14" textLength="39.424" font-family="Noto Sans CJK SC">UC-01</text><text x="151.46" y="369.636" fill="#000" font-size="14" textLength="98" font-family="Noto Sans CJK SC">配置任务与目标</text></g><!--entity Connect--><g class="entity" data-qualified-name="Backup System.GUI . Agent . Server . Storage..P0 ...Connect" id="ent0007" data-source-line="17"><ellipse cx="200.305" cy="271.144" rx="60.805" ry="38.872" fill="#F4F7FA" style="stroke:#506575;stroke-width:0.5;"/><text x="180.593" y="254.194" fill="#000" font-size="14" textLength="39.424" font-family="Noto Sans CJK SC">UC-02</text><text x="151.305" y="274.466" fill="#000" font-size="14" textLength="98" font-family="Noto Sans CJK SC">检查连接并认证</text><text x="162.421" y="294.738" fill="#000" font-size="14" textLength="75.768" font-family="Noto Sans CJK SC">远端部分 P1</text></g><!--entity Scan--><g class="entity" data-qualified-name="Backup System.GUI . Agent . Server . Storage..P0 ...Scan" id="ent0008" data-source-line="18"><ellipse cx="455.685" cy="548.194" rx="40.185" ry="29.922" fill="#F4F7FA" style="stroke:#506575;stroke-width:0.5;"/><text x="435.973" y="542.138" fill="#000" font-size="14" textLength="39.424" font-family="Noto Sans CJK SC">UC-03</text><text x="427.685" y="562.41" fill="#000" font-size="14" textLength="56" font-family="Noto Sans CJK SC">扫描目录</text></g><!--entity Backup--><g class="entity" data-qualified-name="Backup System.GUI . Agent . Server . Storage..P0 ...Backup" id="ent0009" data-source-line="19"><ellipse cx="200.419" cy="433.297" rx="56.919" ry="29.025" fill="#F4F7FA" style="stroke:#506575;stroke-width:0.5;"/><text x="180.707" y="425.845" fill="#000" font-size="14" textLength="39.424" font-family="Noto Sans CJK SC">UC-04</text><text x="158.419" y="446.117" fill="#000" font-size="14" textLength="84" font-family="Noto Sans CJK SC">执行手动备份</text></g><!--entity Versions--><g class="entity" data-qualified-name="Backup System.GUI . Agent . Server . Storage..P0 ...Versions" id="ent0010" data-source-line="20"><ellipse cx="200.459" cy="509.112" rx="65.459" ry="28.84" fill="#F4F7FA" style="stroke:#506575;stroke-width:0.5;"/><text x="180.747" y="501.364" fill="#000" font-size="14" textLength="39.424" font-family="Noto Sans CJK SC">UC-05</text><text x="151.46" y="521.636" fill="#000" font-size="14" textLength="98" font-family="Noto Sans CJK SC">浏览版本与记录</text></g><!--entity Restore--><g class="entity" data-qualified-name="Backup System.GUI . Agent . Server . Storage..P0 ...Restore" id="ent0011" data-source-line="21"><ellipse cx="200.685" cy="586.194" rx="40.185" ry="29.922" fill="#F4F7FA" style="stroke:#506575;stroke-width:0.5;"/><text x="180.973" y="580.138" fill="#000" font-size="14" textLength="39.424" font-family="Noto Sans CJK SC">UC-06</text><text x="172.685" y="600.41" fill="#000" font-size="14" textLength="56" font-family="Noto Sans CJK SC">还原版本</text></g><!--entity Deploy--><g class="entity" data-qualified-name="Backup System.GUI . Agent . Server . Storage..P0 ...Deploy" id="ent0012" data-source-line="22"><ellipse cx="200.305" cy="175.144" rx="60.805" ry="38.872" fill="#F4F7FA" style="stroke:#506575;stroke-width:0.5;"/><text x="180.593" y="158.194" fill="#000" font-size="14" textLength="39.424" font-family="Noto Sans CJK SC">UC-12</text><text x="151.305" y="178.466" fill="#000" font-size="14" textLength="98" font-family="Noto Sans CJK SC">配置并启动服务</text><text x="162.421" y="198.738" fill="#000" font-size="14" textLength="75.768" font-family="Noto Sans CJK SC">远端部分 P1</text></g><!--entity Realtime--><g class="entity" data-qualified-name="Backup System.GUI . Agent . Server . Storage..P1 ......Realtime" id="ent0014" data-source-line="25"><ellipse cx="455.684" cy="724.413" rx="82.684" ry="28.641" fill="#F4F7FA" style="stroke:#506575;stroke-width:0.5;"/><text x="435.972" y="716.341" fill="#000" font-size="14" textLength="39.424" font-family="Noto Sans CJK SC">UC-07</text><text x="392.685" y="736.613" fill="#000" font-size="14" textLength="125.999" font-family="Noto Sans CJK SC">配置并触发实时备份</text></g><!--entity Filters--><g class="entity" data-qualified-name="Backup System.GUI . Agent . Server . Storage..P2 ........Filters" id="ent0016" data-source-line="28"><ellipse cx="676.919" cy="497.297" rx="56.919" ry="29.025" fill="#F4F7FA" style="stroke:#506575;stroke-width:0.5;"/><text x="657.207" y="489.845" fill="#000" font-size="14" textLength="39.424" font-family="Noto Sans CJK SC">UC-08</text><text x="634.919" y="510.117" fill="#000" font-size="14" textLength="84" font-family="Noto Sans CJK SC">编辑筛选规则</text></g><!--entity Unlock--><g class="entity" data-qualified-name="Backup System.GUI . Agent . Server . Storage..P2 ........Unlock" id="ent0017" data-source-line="29"><ellipse cx="677.184" cy="573.413" rx="82.684" ry="28.641" fill="#F4F7FA" style="stroke:#506575;stroke-width:0.5;"/><text x="657.472" y="565.341" fill="#000" font-size="14" textLength="39.424" font-family="Noto Sans CJK SC">UC-09</text><text x="614.185" y="585.613" fill="#000" font-size="14" textLength="125.999" font-family="Noto Sans CJK SC">设置并解锁加密仓库</text></g><!--entity Archive--><g class="entity" data-qualified-name="Backup System.GUI . Agent . Server . Storage..P2 ........Archive" id="ent0018" data-source-line="30"><ellipse cx="676.953" cy="648.363" rx="89.953" ry="28.591" fill="#F4F7FA" style="stroke:#506575;stroke-width:0.5;"/><text x="657.241" y="640.21" fill="#000" font-size="14" textLength="39.424" font-family="Noto Sans CJK SC">UC-10</text><text x="608.073" y="660.482" fill="#000" font-size="14" textLength="137.759" font-family="Noto Sans CJK SC">导出 / 导入单文件归档</text></g><!--entity Retention--><g class="entity" data-qualified-name="Backup System.GUI . Agent . Server . Storage..P2 ........Retention" id="ent0019" data-source-line="31"><ellipse cx="676.959" cy="724.112" rx="65.459" ry="28.84" fill="#F4F7FA" style="stroke:#506575;stroke-width:0.5;"/><text x="657.247" y="716.364" fill="#000" font-size="14" textLength="39.424" font-family="Noto Sans CJK SC">UC-11</text><text x="627.96" y="736.636" fill="#000" font-size="14" textLength="98" font-family="Noto Sans CJK SC">配置保留与回收</text></g><g class="link" data-entity-1="ent0001" data-entity-2="ent0006" id="lnk20" data-link-type="association"><path d="M47.296,604.087 C56.228,541.879 75.99,426.195 103,395.272 C111.528,385.508 122.893,378.23 134.823,372.813" style="stroke:#181818;stroke-width:1;" fill="none"/></g><g class="link" data-entity-1="ent0001" data-entity-2="ent0007" id="lnk21" data-link-type="association"><path d="M45.091,604.133 C51.701,527.428 69.416,363.691 103,319.272 C112.31,306.958 125.641,297.596 139.436,290.562" style="stroke:#181818;stroke-width:1;" fill="none"/></g><g class="link" data-entity-1="ent0001" data-entity-2="ent0008" id="lnk22" data-link-type="association"><path d="M76.285,644.561 C120.679,644.213 200.166,641.118 266,625.272 C319.616,612.366 377.885,586.596 415.226,568.433" style="stroke:#181818;stroke-width:1;" fill="none"/></g><g class="link" data-entity-1="ent0001" data-entity-2="ent0009" id="lnk23" data-link-type="association"><path d="M46.556,603.914 C52.924,565.264 67.958,507.604 103,471.272 C113.937,459.932 128.672,451.905 143.329,446.25" style="stroke:#181818;stroke-width:1;" fill="none"/></g><g class="link" data-entity-1="ent0001" data-entity-2="ent0010" id="lnk24" data-link-type="association"><path d="M59.797,604.132 C70.072,584.775 84.623,562.509 103,547.272 C112.356,539.514 123.487,533.206 134.807,528.121" style="stroke:#181818;stroke-width:1;" fill="none"/></g><g class="link" data-entity-1="ent0001" data-entity-2="ent0011" id="lnk25" data-link-type="association"><path d="M76.175,631.687 C100.965,622.558 134.541,610.193 160.4,600.671" style="stroke:#181818;stroke-width:1;" fill="none"/></g><g class="link" data-entity-1="ent0001" data-entity-2="ent0014" id="lnk26" data-link-type="association"><path d="M45.154,684.492 C51.389,752.175 67.846,884.221 103,912.272 C159.626,957.457 199.052,939.951 266,912.272 C344.592,879.779 407.588,796.874 436.806,752.809" style="stroke:#181818;stroke-width:1;" fill="none"/></g><g class="link" data-entity-1="ent0001" data-entity-2="ent0016" id="lnk27" data-link-type="association"><path d="M43.997,684.519 C48.619,758.576 62.908,911.763 103,943.272 C159.959,988.037 195.142,958.35 266,943.272 C411.381,912.335 478.438,901.268 554,773.272 C567.478,750.442 555.01,556.419 571,535.272 C582.751,519.731 601.458,510.536 619.848,505.099" style="stroke:#181818;stroke-width:1;" fill="none"/></g><g class="link" data-entity-1="ent0001" data-entity-2="ent0017" id="lnk28" data-link-type="association"><path d="M41.927,684.523 C42.728,765.83 49.609,945.171 94,983.272 C133.543,1017.212 525.758,1019.722 563,983.272 C577.773,968.813 558.947,628.066 571,611.272 C577.104,602.767 585.305,596.16 594.446,591.027" style="stroke:#181818;stroke-width:1;" fill="none"/></g><g class="link" data-entity-1="ent0001" data-entity-2="ent0018" id="lnk29" data-link-type="association"><path d="M41.223,684.598 C40.48,772.691 44.253,977.916 94,1021.272 C133.285,1055.51 525.715,1057.678 563,1021.272 C576.32,1008.266 560.127,701.383 571,686.272 C575.303,680.292 580.641,675.25 586.614,671" style="stroke:#181818;stroke-width:1;" fill="none"/></g><g class="link" data-entity-1="ent0001" data-entity-2="ent0019" id="lnk30" data-link-type="association"><path d="M41.158,684.598 C40.201,778.823 44.071,1008.611 103,1050.272 C137.157,1074.42 506.403,1084.315 554,1051.272 C654.046,981.816 672.198,819.842 675.38,753.449" style="stroke:#181818;stroke-width:1;" fill="none"/></g><g class="link" data-entity-1="ent0002" data-entity-2="ent0007" id="lnk31" data-link-type="association"><path d="M76.175,233.687 C94.632,239.312 117.959,246.421 139.345,252.939" style="stroke:#181818;stroke-width:1;" fill="none"/></g><g class="link" data-entity-1="ent0002" data-entity-2="ent0012" id="lnk32" data-link-type="association"><path d="M76.175,212.857 C94.632,207.232 117.959,200.123 139.345,193.605" style="stroke:#181818;stroke-width:1;" fill="none"/></g><g class="link" data-entity-1="ent0003" data-entity-2="ent0014" id="lnk33" data-link-type="association"><path d="M228.575,838.574 C268.794,818.226 345.233,779.553 397.983,752.866" style="stroke:#181818;stroke-width:1;" fill="none"/></g><g class="link" data-entity-1="ent0009" data-entity-2="ent0008" id="lnk34" data-link-type="dependency"><polygon points="415.389,530.494,408.851,523.129,410.837,528.425,405.541,530.412,415.389,530.494" fill="#181818" style="stroke:#181818;stroke-width:1;stroke-linejoin:miter;stroke-miterlimit:10;"/><path d="M257.649,458.794 C305.544,480.565 368.616,509.234 410.837,528.425" style="stroke:#181818;stroke-width:1;stroke-dasharray:7,7;" fill="none"/><text x="286" y="468.512" fill="#000" font-size="14" textLength="61.852" font-family="Noto Sans CJK SC">«include»</text></g><g class="legend" data-source-line="51"><rect x="228.32" y="1096.315" width="351.361" height="70.816" fill="none" style="stroke:#000;stroke-width:1;" rx="7.5" ry="7.5"/><text x="233.32" y="1117.555" fill="#000" font-size="14" textLength="265.999" font-family="Noto Sans CJK SC">全部阶段为目标；阶段标签不是完成状态。</text><text x="233.32" y="1137.827" fill="#000" font-size="14" textLength="341.361" font-family="Noto Sans CJK SC">普通文件/目录为 P0，链接/FIFO 为 P1，元数据为 P2；</text><text x="233.32" y="1158.099" fill="#000" font-size="14" textLength="237.999" font-family="Noto Sans CJK SC">这些行为属于扫描、备份和还原流程。</text></g><?plantuml-src RLLRJnj757xthvYwpmIRGcYh28bGkKeh9IWkVQdxCB47is8zQ-sk4v4gabrAi0qs940ADUKYe52biKbRBEhhZydExFg9lz2pEnumiP-yvyntBjytPuu_IUeudi18nGjQoaH6WfYOOf-fc2f1zt5qFfL4uGN390babyhyODdUFBDQAwpKygbaraIcXdGbFcUYcAAJgAber6VCApI9TPn0nXoEQSyK6aUpM3L8pqcCpEAKQeOqQZx42O8UQf0eZAc1fhxv5eMd1aF3odE2WgCzXq-WmxYkfMXiIbCr7JsRKypUEaaunt4IDXU0ZjiWfd6r5v0oI1GRvFv7UJuDZOR6GvC3W9eU8teND1QuEpO-viDH4om_tobtqhzPpJP8vAIN_0WRQCOWkZplB9xPpR_j-hyyVopF7oM9Zk7qEiURPQjUjV-fs_Nz2BLgAs3nshg73IagCRohy5qpGVvRTtJLo7uzym0DeyaueIRyXed-bEZk1wG78QuQEJ_woOUaCCW_7K3yu9Ar5uKVIQB8FpCr50X6Q6UfO3VBLhtEyeVMPL5CWTVGTzYOD_fZHYAK7wNv_edJtkF54_PVrIaVEvLCX3hjNVjj1NHWsPTeEkWbcT8e1JRzQJw3DBctV6qDAhBcbWSEHp7jHuwwo5FdS9NdLbZ-Z1s3XaqFByJfZnY3Y8irvpHhvx9yzo-WvPJFPP7lYMx070zWTjUbiCsA-oBCGpyc1aXB-i314IaT2C3MAz0Otos0XeDb-8eaLMq1ihouTJb1nDQBREtSxT2B6dXBupsbdDC_sDehLjxZlrPxb7XCi6eg2T9NOGGvfx-mx0vKiEeRhBR1St-ozri3wtmUeNRZZTDwPRyhTT8v4IXdqmJP-aE-0BhbbcpjgBEPOVa3LdafQeatGbKjEjylO212MQN1bcimlkx7qWahR8a7mfgl-U6H5psfH-UKfmFqlndTzk_sbikFbVRuPhKhXmaFnDrMhXulVEuxHKD3tP6MbfnDONjxRaZCe4Hq1qoQrwCZ7N8wRkpkDKY754xQNJ6aATdTnCk-vURexRFNrnsecwLngtntQzo1zKplJ7YSq9VetZs5HjLKZ4nC-4Gy6lfXJed52FtHHVOaa1yV0oGVbS06Yg4dccbg2H2PBPt1m7UsgxnyOLtMn1QvQfI4n_rVUTUoBWjykyBAgpoxRkUhF9tvaFuPOiLY5JS_BBO1f43JWQl6QcUZ1JjcEFGWz0XvpY0usT8YtphdXRBd6O4oaCLfxrYr4cm9SBBtUrQjADRBXtH6l1FsUbMyRdwHiSzMtDf0GH3v7m00?></g></svg>